REM DIRINDEX 1\2\5,1\2\6,1\2\7,1\2\8,1\3\9,1\3\10,1\3\11,1\4\12,1\4\13,1\4\14,1\4\15,1\4\16
REM DIRNAME cjc034,folder01,folder02,folder03,folder04,folder05,folder06,folder07,folder08,folder09,folder10,folder11,folder12,folder13,folder14,folder15
TITLE ""
FILE "1200_sec03_0764_0773.mp3" MP3
  TRACK 01 AUDIO
    TITLE "0:"
    INDEX 01 00:00:00
  TRACK 02 AUDIO
    TITLE "12:cjc034_06719"
    INDEX 01 00:00:17
  TRACK 03 AUDIO
    TITLE "0:"
    INDEX 01 00:01:22
  TRACK 04 AUDIO
    TITLE "13:cjc034_06720"
    INDEX 01 00:01:58
  TRACK 05 AUDIO
    TITLE "0:"
    INDEX 01 00:04:42
  TRACK 06 AUDIO
    TITLE "14:cjc034_06721"
    INDEX 01 00:04:74
  TRACK 07 AUDIO
    TITLE "0:"
    INDEX 01 00:06:02
  TRACK 08 AUDIO
    TITLE "15:cjc034_06722"
    INDEX 01 00:06:39
  TRACK 09 AUDIO
    TITLE "0:"
    INDEX 01 00:10:68
  TRACK 10 AUDIO
    TITLE "12:cjc034_06723"
    INDEX 01 00:12:32
  TRACK 11 AUDIO
    TITLE "0:"
    INDEX 01 00:13:35
  TRACK 12 AUDIO
    TITLE "13:cjc034_06724"
    INDEX 01 00:13:71
  TRACK 13 AUDIO
    TITLE "0:"
    INDEX 01 00:15:05
  TRACK 14 AUDIO
    TITLE "14:cjc034_06725"
    INDEX 01 00:15:46
  TRACK 15 AUDIO
    TITLE "0:"
    INDEX 01 00:16:51
  TRACK 16 AUDIO
    TITLE "15:cjc034_06726"
    INDEX 01 00:17:10
  TRACK 17 AUDIO
    TITLE "0:"
    INDEX 01 00:20:36
  TRACK 18 AUDIO
    TITLE "12:cjc034_06727"
    INDEX 01 00:21:70
  TRACK 19 AUDIO
    TITLE "0:"
    INDEX 01 00:23:20
  TRACK 20 AUDIO
    TITLE "13:cjc034_06728"
    INDEX 01 00:23:55
  TRACK 21 AUDIO
    TITLE "0:"
    INDEX 01 00:24:59
  TRACK 22 AUDIO
    TITLE "14:cjc034_06729"
    INDEX 01 00:25:17
  TRACK 23 AUDIO
    TITLE "0:"
    INDEX 01 00:26:44
  TRACK 24 AUDIO
    TITLE "15:cjc034_06730"
    INDEX 01 00:27:02
  TRACK 25 AUDIO
    TITLE "0:"
    INDEX 01 00:30:03
  TRACK 26 AUDIO
    TITLE "12:cjc034_06731"
    INDEX 01 00:31:35
  TRACK 27 AUDIO
    TITLE "0:"
    INDEX 01 00:32:47
  TRACK 28 AUDIO
    TITLE "13:cjc034_06732"
    INDEX 01 00:33:05
  TRACK 29 AUDIO
    TITLE "0:"
    INDEX 01 00:34:02
  TRACK 30 AUDIO
    TITLE "14:cjc034_06733"
    INDEX 01 00:34:34
  TRACK 31 AUDIO
    TITLE "0:"
    INDEX 01 00:35:45
  TRACK 32 AUDIO
    TITLE "15:cjc034_06734"
    INDEX 01 00:36:03
  TRACK 33 AUDIO
    TITLE "0:"
    INDEX 01 00:39:00
  TRACK 34 AUDIO
    TITLE "12:cjc034_06735"
    INDEX 01 00:40:34
  TRACK 35 AUDIO
    TITLE "0:"
    INDEX 01 00:41:51
  TRACK 36 AUDIO
    TITLE "13:cjc034_06736"
    INDEX 01 00:42:10
  TRACK 37 AUDIO
    TITLE "0:"
    INDEX 01 00:44:14
  TRACK 38 AUDIO
    TITLE "14:cjc034_06737"
    INDEX 01 00:44:46
  TRACK 39 AUDIO
    TITLE "0:"
    INDEX 01 00:45:63
  TRACK 40 AUDIO
    TITLE "15:cjc034_06738"
    INDEX 01 00:46:25
  TRACK 41 AUDIO
    TITLE "0:"
    INDEX 01 00:50:74
  TRACK 42 AUDIO
    TITLE "12:cjc034_06739"
    INDEX 01 00:52:37
  TRACK 43 AUDIO
    TITLE "0:"
    INDEX 01 00:53:41
  TRACK 44 AUDIO
    TITLE "13:cjc034_06740"
    INDEX 01 00:53:72
  TRACK 45 AUDIO
    TITLE "0:"
    INDEX 01 00:54:74
  TRACK 46 AUDIO
    TITLE "14:cjc034_06741"
    INDEX 01 00:55:36
  TRACK 47 AUDIO
    TITLE "0:"
    INDEX 01 00:56:39
  TRACK 48 AUDIO
    TITLE "15:cjc034_06742"
    INDEX 01 00:57:01
  TRACK 49 AUDIO
    TITLE "0:"
    INDEX 01 01:00:29
  TRACK 50 AUDIO
    TITLE "12:cjc034_06743"
    INDEX 01 01:01:64
  TRACK 51 AUDIO
    TITLE "0:"
    INDEX 01 01:03:02
  TRACK 52 AUDIO
    TITLE "13:cjc034_06744"
    INDEX 01 01:03:37
  TRACK 53 AUDIO
    TITLE "0:"
    INDEX 01 01:04:29
  TRACK 54 AUDIO
    TITLE "14:cjc034_06745"
    INDEX 01 01:04:62
  TRACK 55 AUDIO
    TITLE "0:"
    INDEX 01 01:06:00
  TRACK 56 AUDIO
    TITLE "15:cjc034_06746"
    INDEX 01 01:06:34
  TRACK 57 AUDIO
    TITLE "0:"
    INDEX 01 01:10:41
  TRACK 58 AUDIO
    TITLE "12:cjc034_06747"
    INDEX 01 01:11:74
  TRACK 59 AUDIO
    TITLE "0:"
    INDEX 01 01:13:06
  TRACK 60 AUDIO
    TITLE "13:cjc034_06748"
    INDEX 01 01:13:36
  TRACK 61 AUDIO
    TITLE "0:"
    INDEX 01 01:14:57
  TRACK 62 AUDIO
    TITLE "14:cjc034_06749"
    INDEX 01 01:15:13
  TRACK 63 AUDIO
    TITLE "0:"
    INDEX 01 01:16:18
  TRACK 64 AUDIO
    TITLE "15:cjc034_06750"
    INDEX 01 01:16:50
  TRACK 65 AUDIO
    TITLE "0:"
    INDEX 01 01:20:14
  TRACK 66 AUDIO
    TITLE "12:cjc034_06751"
    INDEX 01 01:21:49
  TRACK 67 AUDIO
    TITLE "0:"
    INDEX 01 01:22:48
  TRACK 68 AUDIO
    TITLE "13:cjc034_06752"
    INDEX 01 01:23:07
  TRACK 69 AUDIO
    TITLE "0:"
    INDEX 01 01:25:23
  TRACK 70 AUDIO
    TITLE "14:cjc034_06753"
    INDEX 01 01:25:55
  TRACK 71 AUDIO
    TITLE "0:"
    INDEX 01 01:26:54
  TRACK 72 AUDIO
    TITLE "15:cjc034_06754"
    INDEX 01 01:27:12
  TRACK 73 AUDIO
    TITLE "0:"
    INDEX 01 01:30:44
  TRACK 74 AUDIO
    TITLE "12:cjc034_06755"
    INDEX 01 01:32:13
  TRACK 75 AUDIO
    TITLE "0:"
    INDEX 01 01:33:23
  TRACK 76 AUDIO
    TITLE "13:cjc034_06756"
    INDEX 01 01:33:58
  TRACK 77 AUDIO
    TITLE "0:"
    INDEX 01 01:34:55
  TRACK 78 AUDIO
    TITLE "14:cjc034_06757"
    INDEX 01 01:35:18
  TRACK 79 AUDIO
    TITLE "0:"
    INDEX 01 01:36:29
  TRACK 80 AUDIO
    TITLE "15:cjc034_06758"
    INDEX 01 01:36:64
  TRACK 81 AUDIO
    TITLE "0:"
    INDEX 01 01:40:38
